<svg width="48" height="48" viewBox="0 0 48 48" fill="none" xmlns="http://www.w3.org/2000/svg">
<path d="M37.3216 0H10.6784C4.78088 0 0 4.78088 0 10.6784V37.3216C0 43.2191 4.78088 48 10.6784 48H37.3216C43.2191 48 48 43.2191 48 37.3216V10.6784C48 4.78088 43.2191 0 37.3216 0Z" fill="url(#paint0_linear)"/>
<path d="M22.5341 42.0224C21.1021 41.5104 20.7949 40.8144 20.2077 36.736C19.5245 31.9952 19.3757 29.0608 19.7709 28.1312C20.2957 26.8992 21.7197 26.2 23.7117 26.192C25.6877 26.184 27.1245 26.8896 27.6525 28.1312C28.0493 29.0592 27.9005 31.9952 27.2173 36.736C26.7533 40.048 26.4973 40.8848 25.8573 41.448C24.9773 42.2272 23.7293 42.4432 22.5453 42.024L22.5341 42.0224ZM16.4173 37.1584C11.4733 34.7264 8.30527 30.6112 7.15327 25.136C6.86527 23.7232 6.81727 20.352 7.08927 19.056C7.80927 15.576 9.18527 12.8544 11.4733 10.448C14.7693 6.97279 19.0093 5.13599 23.7293 5.13599C28.4013 5.13599 32.6253 6.93919 35.8413 10.3104C38.2893 12.8544 39.6653 15.5472 40.3693 19.0944C40.6093 20.2752 40.6093 23.4944 40.3853 24.8224C39.6493 29.0208 37.3133 32.8448 33.9053 35.4144C32.6893 36.3328 29.7133 37.936 29.2333 37.936C29.0573 37.936 29.0413 37.7536 29.1213 37.016C29.2653 35.832 29.4093 35.5856 30.0813 35.304C31.1533 34.856 32.9773 33.5568 34.0973 32.4336C36.0333 30.5136 37.4573 28.0016 38.1133 25.3616C38.5293 23.7136 38.4813 20.0496 38.0173 18.3536C36.5613 12.9616 32.1613 8.76959 26.7693 7.64959C25.2013 7.32959 22.3533 7.32959 20.7693 7.64959C15.3133 8.76959 10.8013 13.1696 9.42527 18.7056C9.05727 20.2096 9.05727 23.8736 9.42527 25.3776C10.3373 29.0416 12.7053 32.4016 15.8093 34.4016C16.4173 34.8016 17.1533 35.2176 17.4573 35.3456C18.1293 35.6336 18.2733 35.8736 18.4013 37.0576C18.4813 37.7776 18.4653 37.9856 18.2893 37.9856C18.1773 37.9856 17.3613 37.6336 16.4973 37.2176L16.4173 37.1584ZM16.4813 30.6496C14.8173 29.3216 13.3453 26.9664 12.7373 24.656C12.3693 23.2608 12.3693 20.608 12.7533 19.216C13.7613 15.4592 16.5293 12.5472 20.3693 11.1792C21.6813 10.7152 24.5933 10.6112 26.2093 10.968C31.7773 12.208 35.7293 17.784 34.9613 23.3152C34.6573 25.544 33.8893 27.3744 32.5293 29.0752C31.8573 29.9344 30.2253 31.376 29.9373 31.376C29.8893 31.376 29.8413 30.832 29.8413 30.1696V28.96L30.6733 27.968C33.8093 24.2112 33.5853 18.9632 30.1613 15.52C28.8333 14.1792 27.2973 13.392 25.3133 13.0288C24.0333 12.792 23.7613 12.792 22.4173 13.0128C20.3773 13.3456 18.7965 14.136 17.3933 15.5248C13.9533 18.9328 13.7293 24.208 16.8653 27.968L17.6909 28.96V30.176C17.6909 30.848 17.6381 31.392 17.5725 31.392C17.5085 31.392 17.0445 31.072 16.5485 30.672L16.4813 30.6496ZM22.0333 24.1168C20.6093 23.4544 19.8413 22.2048 19.8253 20.576C19.8253 19.112 20.6413 17.8352 22.0493 17.088C22.9453 16.6176 24.5293 16.6176 25.4253 17.0912C26.4013 17.5984 27.2013 18.5824 27.5053 19.6096C28.4333 22.7648 25.0893 25.5296 22.0653 24.1168H22.0333Z" fill="white"/>
<path d="M23.9826 24.7376C26.1864 24.7376 27.973 22.9511 27.973 20.7472C27.973 18.5434 26.1864 16.7568 23.9826 16.7568C21.7787 16.7568 19.9922 18.5434 19.9922 20.7472C19.9922 22.9511 21.7787 24.7376 23.9826 24.7376Z" fill="white"/>
<path d="M24.3648 26.2832C24.6416 26.32 25.192 26.392 25.7008 26.5552C26.2128 26.7152 26.6768 26.9664 27.0384 27.224C27.3904 27.48 27.6464 27.7456 27.8064 28.0688C27.9664 28.392 28.0464 28.776 28.0944 29.4048C28.1264 30.0352 28.1264 30.9088 27.9824 32.5408C27.8384 34.168 27.5504 36.5536 27.3264 38.0816C27.1024 39.6176 26.9424 40.2896 26.7344 40.7856C26.5264 41.2976 26.2544 41.6336 25.9504 41.8736C25.6464 42.1136 25.2944 42.2576 24.9584 42.3376C24.6224 42.4176 24.3184 42.4176 24.0304 42.4176C23.7424 42.4176 23.4704 42.4176 23.1024 42.3376C22.7344 42.2576 22.2544 42.1136 21.9024 41.8256C21.5344 41.5376 21.2944 41.1216 21.1024 40.5776C20.9104 40.0336 20.7664 39.3776 20.5744 38.0656C20.3824 36.7536 20.1264 34.8016 19.9664 33.3136C19.8064 31.8256 19.7424 30.8016 19.7296 30.1136C19.7136 29.4256 19.7456 29.0848 19.8256 28.7536C19.9056 28.4336 20.0336 28.1296 20.2096 27.8736C20.3856 27.6176 20.616 27.3936 20.8496 27.2176C21.0784 27.0416 21.3136 26.9136 21.5952 26.8144C21.8736 26.7024 22.208 26.6064 22.6192 26.5264C23.0352 26.4464 23.5152 26.3664 23.7616 26.3344C24.008 26.2976 24.008 26.2976 24.2832 26.3344L24.3648 26.2832Z" fill="white"/>
<defs>
<linearGradient id="paint0_linear" x1="23.9504" y1="48.6096" x2="23.544" y2="-2.25002e-06" gradientUnits="userSpaceOnUse">
<stop stop-color="#822CBE"/>
<stop offset="1" stop-color="#D772FB"/>
</linearGradient>
</defs>
</svg>
