<svg width="48" height="48" viewBox="0 0 48 48" fill="none" xmlns="http://www.w3.org/2000/svg">
<rect width="48" height="48" rx="10" fill="white"/>
<rect x="0.25" y="0.25" width="47.5" height="47.5" rx="9.75" stroke="black" stroke-opacity="0.1" stroke-width="0.5"/>
<g clip-path="url(#clip0)">
<path d="M11.4002 22.8426V25.0182C11.4002 26.1195 10.46 27.0124 9.3002 27.0124C8.1404 27.0124 7.2002 26.1195 7.2002 25.0182V22.8426C7.2002 21.7412 8.1404 20.8484 9.3002 20.8484C10.46 20.8484 11.4002 21.7412 11.4002 22.8426Z" fill="#0066D9"/>
<path d="M36.6014 22.8993C36.6009 22.8804 36.6006 22.8615 36.6006 22.8426C36.6006 21.7412 37.5408 20.8484 38.7006 20.8484C39.8604 20.8484 40.8006 21.7412 40.8006 22.8426C40.8006 22.8615 40.8003 22.8805 40.7997 22.8993H40.8006V25.0748H40.7997C40.7682 26.1499 39.8404 27.0123 38.7006 27.0123C37.5607 27.0123 36.633 26.1499 36.6014 25.0748H36.6006V22.8992H36.6014V22.8993Z" fill="#4285F4"/>
<path d="M18.6551 29.3692V31.5447C18.6551 32.6461 17.7149 33.5389 16.5551 33.5389C15.3952 33.5389 14.4551 32.6461 14.4551 31.5447V29.3692C14.4551 28.2679 15.3953 27.375 16.5551 27.375C17.7149 27.375 18.6551 28.2679 18.6551 29.3692V29.3692ZM18.6551 16.3162V23.4319H18.6546C18.6292 24.5124 17.6989 25.3808 16.5551 25.3808C15.4112 25.3808 14.481 24.5124 14.4557 23.4319H14.4551V16.3162C14.4551 15.2149 15.3953 14.322 16.5551 14.322C17.7149 14.322 18.6551 15.2149 18.6551 16.3162Z" fill="#EA4335"/>
<path d="M29.3457 18.4917C29.3457 19.5931 30.2858 20.4859 31.4457 20.4859C32.6056 20.4859 33.5457 19.5931 33.5457 18.4917V16.3162C33.5457 15.2149 32.6055 14.322 31.4457 14.322C30.2859 14.322 29.3457 15.2149 29.3457 16.3162V18.4917Z" fill="#34A853"/>
<path d="M21.9004 12.1466C21.9004 13.2479 22.8406 14.1408 24.0004 14.1408C25.1602 14.1408 26.1004 13.2479 26.1004 12.1466V9.97101C26.1004 8.86965 25.1602 7.97681 24.0004 7.97681C22.8406 7.97681 21.9004 8.86965 21.9004 9.97101V12.1466ZM21.9004 35.7144C21.9004 34.6131 22.8406 33.7201 24.0004 33.7201C25.1602 33.7201 26.1004 34.6131 26.1004 35.7144V37.8899C26.1004 38.9913 25.1602 39.8841 24.0004 39.8841C22.8406 39.8841 21.9004 38.9913 21.9004 37.8899V35.7144Z" fill="#FAB908"/>
<path d="M29.3457 24.4744C29.3457 23.3731 30.2858 22.4802 31.4457 22.4802C32.6056 22.4802 33.5457 23.3731 33.5457 24.4744V31.5448C33.5457 32.6462 32.6055 33.539 31.4457 33.539C30.2859 33.539 29.3457 32.6462 29.3457 31.5448V24.4744Z" fill="#34A853"/>
<path d="M26.1004 18.1292V29.7318C26.1004 30.8332 25.1602 31.726 24.0004 31.726C22.8406 31.726 21.9004 30.8332 21.9004 29.7318V18.1292C21.9004 17.0278 22.8406 16.135 24.0004 16.135C25.1602 16.135 26.1004 17.0278 26.1004 18.1292Z" fill="#FAB908"/>
</g>
<defs>
<clipPath id="clip0">
<rect width="33.6" height="31.9073" fill="white" transform="translate(7.2002 7.97681)"/>
</clipPath>
</defs>
</svg>
