<?xml version="1.0" encoding="UTF-8"?>
<svg width="89px" height="116px" viewBox="0 0 89 116" version="1.1" xmlns="http://www.w3.org/2000/svg" xmlns:xlink="http://www.w3.org/1999/xlink">
    <!-- Generator: Sketch 52.6 (67491) - http://www.bohemiancoding.com/sketch -->
    <title>Logos / without bg / listen / rus</title>
    <desc>Created with Sketch.</desc>
    <defs>
        <rect id="path-1" x="17.6737589" y="34.0434783" width="14.5177305" height="20.173913"></rect>
        <filter x="-6.9%" y="-5.0%" width="113.8%" height="109.9%" filterUnits="objectBoundingBox" id="filter-2">
            <feOffset dx="2" dy="0" in="SourceAlpha" result="shadowOffsetInner1"></feOffset>
            <feComposite in="shadowOffsetInner1" in2="SourceAlpha" operator="arithmetic" k2="-1" k3="1" result="shadowInnerInner1"></feComposite>
            <feColorMatrix values="0 0 0 0 0.835294118   0 0 0 0 0.796078431   0 0 0 0 0.705882353  0 0 0 1 0" type="matrix" in="shadowInnerInner1"></feColorMatrix>
        </filter>
        <path d="M19.5673759,54.2173913 C19.5673759,54.2173913 17.5301803,56.7696609 10.0992908,56.7391304 C2.03719555,56.7081391 0.0101913416,54.1899945 0,54.2173913 L0,0.705337605 C0,0.315790402 0.309592822,0 0.703303882,0 L1.82151881,0 C2.20994282,0 2.5248227,0.316883999 2.5248227,0.694431751 L2.5248227,20.173913 C4.18932524,20.8311388 6.46145392,21.3900937 10.7304965,21.4347826 C13.105922,21.4164785 15.3780506,20.8612772 17.0425532,20.173913 L17.0425532,0.694431751 C17.0425532,0.310907685 17.352146,0 17.7458571,0 L18.864072,0 C19.252496,0 19.5673759,0.318398252 19.5673759,0.705337605 L19.5673759,54.2173913 Z" id="path-3"></path>
        <rect id="path-5" x="37.2411348" y="34.0434783" width="14.5177305" height="20.173913"></rect>
        <filter x="-6.9%" y="-5.0%" width="113.8%" height="109.9%" filterUnits="objectBoundingBox" id="filter-6">
            <feOffset dx="2" dy="0" in="SourceAlpha" result="shadowOffsetInner1"></feOffset>
            <feComposite in="shadowOffsetInner1" in2="SourceAlpha" operator="arithmetic" k2="-1" k3="1" result="shadowInnerInner1"></feComposite>
            <feColorMatrix values="0 0 0 0 0.835294118   0 0 0 0 0.796078431   0 0 0 0 0.705882353  0 0 0 1 0" type="matrix" in="shadowInnerInner1"></feColorMatrix>
        </filter>
        <path d="M19.5673759,54.2173913 C19.5673759,54.2173913 17.5301803,56.7696609 10.0992908,56.7391304 C2.03719555,56.7081391 0.0101913416,54.1899945 0,54.2173913 L0,0.705337605 C0,0.315790402 0.309592822,0 0.703303882,0 L1.82151881,0 C2.20994282,0 2.5248227,0.316883999 2.5248227,0.694431751 L2.5248227,20.173913 C4.18932524,20.8311388 6.46145392,21.3900937 10.7304965,21.4347826 C13.105922,21.4164785 15.3780506,20.8612772 17.0425532,20.173913 L17.0425532,0.694431751 C17.0425532,0.310907685 17.352146,0 17.7458571,0 L18.864072,0 C19.252496,0 19.5673759,0.318398252 19.5673759,0.705337605 L19.5673759,54.2173913 Z" id="path-7"></path>
        <rect id="path-9" x="56.8085106" y="34.0434783" width="14.5177305" height="20.173913"></rect>
        <filter x="-6.9%" y="-5.0%" width="113.8%" height="109.9%" filterUnits="objectBoundingBox" id="filter-10">
            <feOffset dx="2" dy="0" in="SourceAlpha" result="shadowOffsetInner1"></feOffset>
            <feComposite in="shadowOffsetInner1" in2="SourceAlpha" operator="arithmetic" k2="-1" k3="1" result="shadowInnerInner1"></feComposite>
            <feColorMatrix values="0 0 0 0 0.835294118   0 0 0 0 0.796078431   0 0 0 0 0.705882353  0 0 0 1 0" type="matrix" in="shadowInnerInner1"></feColorMatrix>
        </filter>
        <path d="M19.5673759,54.2173913 C19.5673759,54.2173913 17.5301803,56.7696609 10.0992908,56.7391304 C2.03719555,56.7081391 0.0101913416,54.1899945 0,54.2173913 L0,0.705337605 C0,0.315790402 0.309592822,0 0.703303882,0 L1.82151881,0 C2.20994282,0 2.5248227,0.316883999 2.5248227,0.694431751 L2.5248227,20.173913 C4.18932524,20.8311388 6.46145392,21.3900937 10.7304965,21.4347826 C13.105922,21.4164785 15.3780506,20.8612772 17.0425532,20.173913 L17.0425532,0.694431751 C17.0425532,0.310907685 17.352146,0 17.7458571,0 L18.864072,0 C19.252496,0 19.5673759,0.318398252 19.5673759,0.705337605 L19.5673759,54.2173913 Z" id="path-11"></path>
    </defs>
    <g id="Symbols" stroke="none" stroke-width="1" fill="none" fill-rule="evenodd">
        <g id="_4-2---logo-subbrands-copy-2" transform="translate(-349.000000, -340.000000)">
            <g id="_4-2">
                <g id="Group-51" transform="translate(30.000000, 31.000000)">
                    <g id="3" transform="translate(0.000000, 176.000000)">
                        <g id="Logos-/-without-bg-/-listen-/-rus" transform="translate(319.000000, 133.000000)">
                            <g id="Group-26">
                                <g id="listen_icon_w" transform="translate(0.000000, 0.000000)">
                                    <g id="Rectangle-338">
                                        <use fill="#EFE9DA" fill-rule="evenodd" xlink:href="#path-1"></use>
                                        <use fill="black" fill-opacity="1" filter="url(#filter-2)" xlink:href="#path-1"></use>
                                    </g>
                                    <g id="Rectangle-3929" transform="translate(15.148936, 32.782609)">
                                        <mask id="mask-4" fill="white">
                                            <use xlink:href="#path-3"></use>
                                        </mask>
                                        <use id="Mask" fill="#CDCDCD" xlink:href="#path-3"></use>
                                        <rect fill-opacity="0.2" fill="#FFFFFF" mask="url(#mask-4)" x="-0.631205674" y="-0.630434783" width="10.4148936" height="60.5217391"></rect>
                                    </g>
                                    <g id="Rectangle-338-Copy-5">
                                        <use fill="#EFE9DA" fill-rule="evenodd" xlink:href="#path-5"></use>
                                        <use fill="black" fill-opacity="1" filter="url(#filter-6)" xlink:href="#path-5"></use>
                                    </g>
                                    <g id="Rectangle-3929-Copy" transform="translate(34.716312, 32.782609)">
                                        <mask id="mask-8" fill="white">
                                            <use xlink:href="#path-7"></use>
                                        </mask>
                                        <use id="Mask" fill="#3B393F" xlink:href="#path-7"></use>
                                        <rect id="Rectangle-3929" fill-opacity="0.05" fill="#FFFFFF" mask="url(#mask-8)" x="-0.631205674" y="-0.630434783" width="10.4148936" height="60.5217391"></rect>
                                    </g>
                                    <g id="Rectangle-338-Copy-6">
                                        <use fill="#EFE9DA" fill-rule="evenodd" xlink:href="#path-9"></use>
                                        <use fill="black" fill-opacity="1" filter="url(#filter-10)" xlink:href="#path-9"></use>
                                    </g>
                                    <g id="Rectangle-3929-Copy-2" transform="translate(54.283688, 32.782609)">
                                        <mask id="mask-12" fill="white">
                                            <use xlink:href="#path-11"></use>
                                        </mask>
                                        <use id="Mask" fill="#FF4C00" xlink:href="#path-11"></use>
                                        <rect id="Rectangle-3929" fill-opacity="0.100000001" fill="#FFFFFF" mask="url(#mask-12)" x="-0.631205674" y="-0.630434783" width="10.4148936" height="60.5217391"></rect>
                                    </g>
                                    <polygon id="Rectangle-344-Copy" fill="#FF4C00" points="20.1985816 51.6956522 29.6666667 51.6956522 29.6666667 70.6086957 24.9326241 68.0869565 20.1985816 70.6086957"></polygon>
                                    <path d="M82.6570115,39.83793 C82.2244695,19.1297266 65.2756089,2.53071329 44.5,2.53071329 C23.6816598,2.53071329 6.71293373,19.1954522 6.34076321,39.9525868 C6.3392986,40.0342728 6.33504431,53.4613183 6.33504431,53.4613183 L82.6660052,53.1449791 C82.6647737,52.9870448 82.6589975,39.9330131 82.6570115,39.83793 Z M3.80071174,53.4613183 C3.80071174,53.3031487 3.80293463,40.1541793 3.80736157,39.9072744 C4.20374633,17.7996342 22.2706677,0 44.5,0 C66.6883839,0 84.7296779,17.7341177 85.1902681,39.7851459 C85.1962716,40.0725678 85.1992883,52.9868095 85.1992883,53.1449791 L3.80071174,53.4613183 Z" id="Shape" fill="#3B393F" fill-rule="nonzero"></path>
                                    <path d="M11.4021352,20.8935689 L16.3084399,19.5453736 C18.1642947,19.0352978 19.8661314,18.0672472 21.2650233,16.728057 C27.3271004,10.9261859 35.4976984,7.36980617 44.4880293,7.36980617 C53.4777237,7.36980617 61.6483216,10.9261859 67.7110352,16.728057 C69.1092907,18.0672472 70.8111273,19.0352978 72.6669821,19.5453736 L77.5732868,20.8935689 C70.7016599,9.68026304 58.454673,2.21437413 44.4880293,2.21437413 C30.520749,2.21437413 18.2737622,9.68026304 11.4021352,20.8935689" id="Imported-Layers" fill="#000000"></path>
                                    <rect id="Rectangle-342-Copy-2" fill="#000000" x="0" y="51.6956522" width="10.0992908" height="23.9565217" rx="2"></rect>
                                    <rect id="Rectangle-342" fill="#3B393F" x="3.78723404" y="46.6521739" width="10.0992908" height="32.7826087" rx="2"></rect>
                                    <rect id="Rectangle-342-Copy-3" fill="#000000" x="78.9007092" y="51.6956522" width="10.0992908" height="23.9565217" rx="2"></rect>
                                    <rect id="Rectangle-342-Copy" fill="#3B393F" x="75.1134752" y="46.6521739" width="10.0992908" height="32.7826087" rx="2"></rect>
                                </g>
                                <g id="logo-copy-3" transform="translate(10.500000, 101.000000)">
                                    <path d="M5.8734229,2.82067204 C5.81936677,4.10505249 5.7584012,5.27426195 5.69093263,6.32911435 C5.62305763,7.38355977 5.53201572,8.33382225 5.41780689,9.17827391 C5.30278518,10.0231325 5.15077769,10.7703196 4.96178443,11.4190213 C4.77279117,12.0681299 4.52974177,12.6289272 4.23263623,13.1022271 C4.04364296,13.4135551 3.83066991,13.6703498 3.59452994,13.8730182 C3.35838997,14.0752796 3.11168263,14.2376585 2.85562725,14.3597479 C2.59875898,14.4814304 2.34554865,14.565672 2.09599626,14.6132869 C1.84603743,14.6604948 1.61314895,14.6840988 1.39733084,14.6840988 C1.08681287,14.6840988 0.826693114,14.6604948 0.617377994,14.6132869 C0.408062874,14.565672 0.202812126,14.4948602 0,14.4000374 L0.303608533,12.0074922 C0.384489521,12.0347588 0.465370509,12.0547001 0.546657934,12.0681299 C0.627538922,12.0815598 0.708826347,12.0884782 0.789707335,12.0884782 C1.00552545,12.0884782 1.2184985,12.0347588 1.42740719,11.9256923 C1.63672231,11.8182536 1.81555464,11.6355265 1.96471707,11.3783248 C2.16671632,11.0816476 2.34229716,10.6457885 2.49105314,10.0707474 C2.63940269,9.49611331 2.77108832,8.76276299 2.88570359,7.8702895 C3.00031886,6.97781601 3.09176722,5.91360343 3.15923578,4.67643087 C3.2262979,3.43925832 3.27344461,1.99656861 3.30108234,0.347140852 L11.6655584,0.347140852 L11.6655584,14.5420681 L8.89081213,14.5420681 L8.89081213,2.82067204 L5.8734229,2.82067204 Z" id="Fill-1" fill="#000000"></path>
                                    <polygon id="Fill-2" fill="#000000" points="19.9800427 8.47870166 19.9194835 8.47870166 19.0484888 9.95883212 15.4433915 14.5420681 13.7826894 14.5420681 13.7826894 4.40254366 16.4155891 4.40254366 16.4155891 9.22873753 16.2940644 10.6079407 16.3749454 10.6079407 17.2057028 9.16809979 20.8510374 4.40254366 22.5117395 4.40254366 22.5117395 14.5420681 19.8792463 14.5420681 19.8792463 9.91813565"></polygon>
                                    <polygon id="Fill-3" fill="#000000" points="29.6593428 6.73445114 29.6593428 14.5416611 26.9455621 14.5416611 26.9455621 6.73445114 24.0496976 6.73445114 24.0496976 4.40213669 32.4747328 4.40213669 32.4747328 6.73445114"></polygon>
                                    <path d="M38.3343368,2.53661071 C38.0644626,2.53661071 37.8075943,2.54678482 37.5649513,2.56713306 C37.3219019,2.58707432 37.1259993,2.61108524 36.9776497,2.63835187 L36.9776497,7.24152911 C37.0312994,7.25495894 37.1121804,7.26879574 37.2206991,7.28181861 C37.3284049,7.29565541 37.4438331,7.30582952 37.5649513,7.31234096 C37.6860696,7.31925936 37.8043428,7.32251507 37.9193645,7.32251507 L38.1721684,7.32251507 C38.537149,7.32251507 38.8984716,7.28914397 39.2557298,7.22118087 C39.6138009,7.1540317 39.9344798,7.02868659 40.2181729,6.84636642 C40.501866,6.66363929 40.7274386,6.41010031 40.8965165,6.08534252 C41.0647814,5.76099168 41.1497268,5.33530665 41.1497268,4.80828742 C41.1497268,4.36184719 41.0688458,3.99354418 40.9066774,3.70256445 C40.7449154,3.41239865 40.5315359,3.17880094 40.2685711,3.00339917 C40.0056063,2.82759044 39.7044364,2.70550104 39.3675,2.63835187 C39.0301572,2.57038877 38.6850921,2.53661071 38.3343368,2.53661071 M36.0765786,0.235225572 C36.7577672,0.174180873 37.4365172,0.143658524 38.1116093,0.143658524 C38.8135262,0.143658524 39.5195075,0.201447505 40.2279274,0.316211538 C40.9367537,0.430975572 41.5752665,0.660910603 42.1418398,1.00560967 C42.709226,1.35030873 43.1713451,1.83012006 43.5290097,2.44504366 C43.886268,3.06078119 44.0655067,3.86168763 44.0655067,4.84816996 C44.0655067,5.74064345 43.9110606,6.49474896 43.5997298,7.10967256 C43.2892118,7.72500312 42.8778975,8.22801143 42.3645674,8.62032536 C41.8512373,9.01263929 41.2675936,9.29670062 40.6132298,9.47210239 C39.9580531,9.64831809 39.2793031,9.73581549 38.5781991,9.73581549 L38.2530494,9.73581549 C38.1042934,9.73581549 37.9498473,9.73215281 37.7872725,9.72564137 C37.6255105,9.71872297 37.4665936,9.70895582 37.3113346,9.69552599 C37.1560756,9.68209615 37.0443054,9.66825936 36.9772433,9.65482952 L36.9772433,14.5420681 L34.2029034,14.5420681 L34.2029034,0.488357588 C34.7694768,0.380511954 35.3945771,0.295863306 36.0765786,0.235225572 Z" id="Fill-4" fill="#FF4C00"></path>
                                    <path d="M49.3471572,6.18586279 C48.524122,6.2098737 48.1396325,6.41742568 47.7957867,6.82194854 C47.4543795,7.22443659 47.2572575,7.77383888 47.1910082,8.46323701 L50.9724993,8.49864293 C51.026149,7.7689553 50.9607126,7.20530925 50.6859611,6.81340229 C50.4108031,6.42108836 49.9381168,6.16836331 49.3471572,6.18586279 M51.4480307,14.4911975 C50.7534296,14.7146211 50.0137141,14.8261294 49.2305097,14.8261294 C47.5966325,14.8261294 46.4021138,14.3495738 45.6457343,13.3960556 C44.8897612,12.4429444 44.5121811,11.13496 44.5121811,9.47210239 C44.5121811,7.68796933 44.9373144,6.34905561 45.7875808,5.45698909 C46.6382537,4.56451559 47.8331789,4.11848233 49.3723563,4.11848233 C49.8852799,4.11848233 50.3851976,4.18603846 50.8712964,4.32115073 C51.3573952,4.45626299 51.7890314,4.67968659 52.1674244,4.99020062 C52.5458174,5.30152859 52.8494259,5.72070218 53.0786564,6.24772141 C53.3082934,6.77474064 53.4233151,7.43117464 53.4233151,8.21539553 C53.4233151,8.49864293 53.4062448,8.80305249 53.3725105,9.12740333 C53.3387762,9.45175416 53.288378,9.78953482 53.2209094,10.1415593 L47.1166302,10.1415593 C47.157274,10.9933363 47.4238967,11.6351195 47.8209858,12.067723 C48.2176684,12.5007334 48.8606519,12.7164246 49.7483106,12.7164246 C50.2994394,12.7164246 50.786351,12.608986 51.2318061,12.4632926 C51.7869993,12.2817864 52.3096774,12.0343519 52.3096774,12.0343519 L53.0989783,13.6699428 C52.6937605,13.9942937 52.1434446,14.2681809 51.4480307,14.4911975 Z" id="Fill-5" fill="#FF4C00"></path>
                                    <path d="M61.9820681,6.36167152 C61.9820681,6.36167152 61.1761033,6.19766476 60.5412485,6.19766476 C58.7338226,6.19766476 57.5604386,7.23379678 57.5604386,9.52053119 C57.5604386,11.6656419 58.4554132,12.7253779 60.3429072,12.7253779 C60.958253,12.7253779 62.1442365,12.5605572 62.1442365,12.5605572 L62.5071849,14.393119 C62.0113316,14.5514283 61.0375082,14.7907235 59.86575,14.7907235 C56.1915584,14.7907235 54.8405614,12.1059777 54.8405614,9.38134927 C54.8405614,6.63718659 56.4293241,4.17098077 60.0844132,4.17098077 C60.7595052,4.17098077 61.5927013,4.25033888 62.3681834,4.44934459 L61.9820681,6.36167152" id="Fill-6" fill="#FF4C00"></path>
                                    <path d="M66.1415457,7.29321362 C65.3156654,7.29321362 64.6470763,6.62375676 64.6470763,5.79721154 C64.6470763,4.97066632 65.3156654,4.30080249 66.1415457,4.30080249 C66.9662066,4.30080249 67.6356085,4.97066632 67.6356085,5.79721154 C67.6356085,6.62375676 66.9662066,7.29321362 66.1415457,7.29321362 Z" id="Fill-7" fill="#FF4C00"></path>
                                    <path d="M67.6356085,13.196236 C67.6356085,14.0223742 66.9662066,14.692238 66.1415457,14.692238 C65.3156654,14.692238 64.6470763,14.0223742 64.6470763,13.196236 C64.6470763,12.3692838 65.3156654,11.69942 66.1415457,11.69942 C66.9662066,11.69942 67.6356085,12.3696907 67.6356085,13.196236" id="Fill-8" fill="#FF4C00"></path>
                                </g>
                            </g>
                        </g>
                    </g>
                </g>
            </g>
        </g>
    </g>
</svg>