<?xml version="1.0" encoding="utf-8"?>
<!-- Generator: Adobe Illustrator 23.0.1, SVG Export Plug-In . SVG Version: 6.00 Build 0)  -->
<svg version="1.1" id="Layer_1" xmlns="http://www.w3.org/2000/svg" xmlns:xlink="http://www.w3.org/1999/xlink" x="0px" y="0px"
	 viewBox="0 0 87.9 87.9" style="enable-background:new 0 0 87.9 87.9;" xml:space="preserve">
<style type="text/css">
	.st0{fill:#303D6F;}
	.st1{fill-rule:evenodd;clip-rule:evenodd;fill:#FEFEFE;}
	.st2{fill:#D7B56D;}
	.st3{fill-rule:evenodd;clip-rule:evenodd;fill:#D7B56D;}
</style>
<rect class="st0" width="87.9" height="87.9"/>
<path class="st1" d="M43.8,17.7c0.6,0,1.3,0,1.9,0c-0.8,1.1-1.5,2.8-1.5,4.4c0,1.5,0.5,2.9,1.3,4.1c-0.6,0-1.3-0.2-1.9-0.2
	c-18,0-32.5,9.8-32.5,21.8c0,12.1,14.6,21.8,32.5,21.8c18,0,32.7-9.7,32.7-21.8c0-9.2-8.7-17-20.9-20.1c1.6-1.3,2.8-3.4,2.8-5.6
	c0-1-0.2-2-0.5-2.8c14.9,3.9,25.6,13.9,25.6,25.5C83.3,59.9,65.5,72,43.8,72C22,72,4.3,59.9,4.3,44.8S22,17.7,43.8,17.7z"/>
<path class="st2" d="M51.3,28.1c3.3,0,6-2.7,6-6.1s-2.7-6.1-6-6.1c-3.3,0-6,2.7-6,6.1S48,28.1,51.3,28.1z"/>
<path class="st3" d="M44.7,33.1h8.7l-5.3,28.5h-8.7L44.7,33.1z"/>
<path class="st1" d="M30.1,32.9h9.7l1.8,9.2L38.8,57l-3.4-14.9L34,61.7H23.6L30.1,32.9z"/>
<path class="st1" d="M54.4,32.9h2.8l6.8,28.8H53.6L51.9,48L54.4,32.9z"/>
</svg>
