<svg width="48" height="48" viewBox="0 0 48 48" fill="none" xmlns="http://www.w3.org/2000/svg">
<path d="M47.0325 6.40596C45.8549 3.61302 43.4915 1.49231 40.5882 0.623477C38.694 0.149866 36.7428 -0.0556728 34.7915 0.0128666H13.2086C11.2573 -0.0556722 9.30608 0.149867 7.41191 0.623477C4.50865 1.49231 2.14523 3.61302 0.967607 6.40596C0.236914 8.59512 -0.0846545 10.9001 0.0189756 13.2057V34.7942C-0.0846662 37.0998 0.236903 39.4049 0.967607 41.5941C2.14523 44.387 4.50866 46.5077 7.41191 47.3765C9.30608 47.8501 11.2573 48.0557 13.2086 47.9871H34.7914C36.7427 48.0557 38.6939 47.8501 40.5881 47.3765C43.4913 46.5077 45.8548 44.387 47.0324 41.5941C47.7631 39.4049 48.0847 37.0998 47.981 34.7942V13.2057C48.0847 10.9001 47.7632 8.59513 47.0325 6.40596Z" fill="white"/>
<path d="M34.7915 0.262867V0.263021L34.8003 0.262713C36.7263 0.195061 38.6522 0.397669 40.522 0.86462C43.3482 1.71216 45.6493 3.77618 46.7984 6.49427C47.5172 8.65161 47.8334 10.9228 47.7313 13.1945L47.731 13.1945V13.2057V34.7942H47.7308L47.7313 34.8054C47.8334 37.0772 47.5171 39.3484 46.7983 41.5058C45.6491 44.2238 43.3481 46.2878 40.5219 47.1354C38.6521 47.6023 36.7262 47.8049 34.8002 47.7373L34.8002 47.7371H34.7914H13.2086V47.737L13.1998 47.7373C11.2738 47.8049 9.34786 47.6023 7.47811 47.1354C4.65193 46.2878 2.35085 44.2238 1.20169 41.5058C0.482859 39.3484 0.166603 37.0772 0.268723 34.8054L0.268976 34.8054V34.7942V13.2057H0.269228L0.268723 13.1945C0.166615 10.9227 0.482871 8.65159 1.2017 6.49426C2.35084 3.77618 4.65193 1.71216 7.47812 0.864619C9.34787 0.397669 11.2738 0.195062 13.1998 0.262713L13.1998 0.262867H13.2086H34.7915Z" stroke="black" stroke-opacity="0.1" stroke-width="0.5"/>
<path d="M23.5745 42.4996C31.7667 42.4996 38.4078 35.8667 38.4078 27.6845C38.4078 19.5023 31.7667 12.8694 23.5745 12.8694C15.3823 12.8694 8.74121 19.5023 8.74121 27.6845C8.74121 35.8667 15.3823 42.4996 23.5745 42.4996Z" fill="#FFCC00"/>
<path d="M31.0031 12.5833L31.0032 26.443L30.9705 26.4539C30.9705 26.4598 30.9705 26.4657 30.9705 26.4716C30.9705 27.8273 30.8721 29.0917 30.6883 29.7371C29.8043 32.8408 26.9448 35.0921 23.5538 35.0921C19.4577 35.0921 16.1807 31.7865 16.1807 27.6954C16.1807 23.6043 19.4577 20.2987 23.5538 20.2987C25.4838 20.2987 27.2416 21.035 28.561 22.2416C28.9921 22.6359 29.3764 23.0803 29.7046 23.5657C29.6135 23.1313 29.5239 22.5848 29.5239 22.1176V11.3763V5.45459L39.1774 8.40892V15.0996L31.0031 12.5833Z" fill="#FF3333"/>
</svg>
