<svg width="170" height="170" viewBox="0 0 170 170" fill="none" xmlns="http://www.w3.org/2000/svg">
<g id="AudioBooksLogo">
<g id="Group">
<g id="Group_2">
<path id="Vector" d="M74.1216 128.43C74.1456 128.31 74.1936 128.166 74.2176 128.046C70.3076 126.582 66.3497 125.143 62.4637 123.608C60.1129 122.672 57.7861 121.593 55.5313 120.442C54.6437 119.986 53.8281 119.266 53.9481 117.947C54.3079 113.917 54.6197 109.863 54.8836 105.809C55.4833 96.574 55.0755 87.3868 53.8761 78.2235C53.7322 77.1681 53.6122 75.8248 52.9406 75.2011C51.3334 73.6899 49.3904 72.5145 47.9032 71.435C48.287 76.3525 48.9587 81.6777 49.1026 87.003C49.3425 96.574 49.3664 106.145 49.2225 115.74C49.1506 120.538 48.9347 120.49 53.3004 122.601C59.921 125.815 67.2132 126.391 74.1216 128.43ZM96.1422 128.022C96.1902 128.094 96.2622 128.166 96.3102 128.262C99.3806 127.614 102.451 126.966 105.497 126.295C110.439 125.191 115.26 123.8 119.65 121.137C120.682 120.514 121.137 119.794 121.113 118.499C120.921 112.55 120.706 106.577 120.801 100.604C120.921 93.4077 121.305 86.1874 121.665 78.9911C121.809 76.3765 122.241 73.7618 122.505 71.2671C121.089 72.3466 119.722 73.5699 118.163 74.5294C117.035 75.2251 116.604 76.0646 116.508 77.288C116.1 82.3254 115.548 87.3388 115.26 92.3762C114.781 100.556 115.284 108.688 116.172 116.82C116.412 119.026 116.268 119.746 114.277 120.73C111.638 122.025 108.904 123.104 106.169 124.184C102.859 125.503 99.5005 126.75 96.1422 128.022Z" fill="white"/>
<path id="Vector_2" d="M74.1216 128.43C67.2132 126.391 59.897 125.815 53.3004 122.601C48.9587 120.49 49.1745 120.538 49.2225 115.74C49.3425 106.169 49.3185 96.574 49.1026 87.003C48.9826 81.6777 48.311 76.3765 47.9032 71.435C49.3904 72.5145 51.3334 73.6899 52.9406 75.2011C53.6122 75.8248 53.7322 77.1681 53.8761 78.2235C55.0515 87.3868 55.4833 96.574 54.8836 105.809C54.6197 109.863 54.3079 113.893 53.9481 117.947C53.8281 119.266 54.6437 119.962 55.5313 120.442C57.7861 121.593 60.1129 122.673 62.4637 123.608C66.3497 125.167 70.3076 126.582 74.2176 128.046C74.1936 128.166 74.1696 128.31 74.1216 128.43Z" fill="white"/>
<path id="Vector_3" d="M96.1422 128.022C99.4765 126.75 102.835 125.503 106.169 124.184C108.904 123.104 111.638 122.025 114.277 120.73C116.268 119.746 116.412 119.026 116.172 116.82C115.308 108.688 114.781 100.532 115.26 92.3762C115.548 87.3388 116.124 82.3254 116.508 77.288C116.604 76.0646 117.035 75.2251 118.163 74.5294C119.722 73.5939 121.089 72.3466 122.505 71.2671C122.217 73.7378 121.785 76.3525 121.665 78.9911C121.305 86.1874 120.921 93.3837 120.801 100.604C120.706 106.553 120.921 112.526 121.113 118.499C121.161 119.794 120.682 120.514 119.65 121.137C115.284 123.8 110.439 125.191 105.497 126.295C102.451 126.966 99.3806 127.614 96.3102 128.262C96.2622 128.166 96.2142 128.094 96.1422 128.022Z" fill="white"/>
</g>
</g>
<path id="Vector_4" d="M132.363 64.4786C124.52 47.9752 106.505 34.9739 85.1319 34.9739C63.4711 34.9739 45.5284 48.335 37.9484 64.4307C39.1237 65.0064 40.2991 65.678 41.5225 66.1817C42.8178 66.7095 43.1776 67.669 43.1057 68.9163C42.8898 73.8818 42.7459 78.8232 42.41 83.7886C42.0023 90.1453 41.4505 96.4781 40.9468 102.811C40.7069 105.809 40.491 108.808 40.0593 111.758C39.6275 114.733 39.1717 115.044 36.1253 114.901C31.0639 114.661 26.4823 113.173 22.9321 109.335C20.7253 106.937 19.7178 103.986 19.1661 100.82C17.9187 93.8154 16.8393 86.7631 17.2711 79.6388C17.439 76.8802 17.9667 74.0737 18.8303 71.435C20.2455 67.0213 23.5558 64.6705 28.2814 64.0468C27.6097 70.2596 26.5782 76.4484 27.7536 82.6852C27.7536 52.221 55.6752 31.2318 78.4634 29.0969C94.7989 27.5617 109.431 31.6876 122.145 42.0982C134.954 52.5568 141.383 66.3257 142.414 82.7812C143.614 76.4724 142.774 70.3316 142.006 64.1428C147.572 64.6945 150.282 67.7649 151.769 72.1786C153.473 77.288 153.305 82.5893 152.897 87.8186C152.513 92.4961 151.769 97.1497 150.906 101.755C149.563 108.856 144.621 113.485 137.425 114.589C135.938 114.805 134.426 114.829 132.939 114.972C131.668 115.092 130.852 114.517 130.66 113.317C130.229 110.775 129.773 108.208 129.533 105.617C128.981 99.1887 128.501 92.736 128.07 86.2833C127.71 80.9341 127.47 75.5849 127.086 70.2356C126.918 67.7889 127.782 66.2297 130.133 65.4861C130.876 65.2462 131.572 64.8384 132.363 64.4786Z" fill="white"/>
<path id="Vector_5" d="M111.782 65.9419C111.494 70.9553 110.967 76.3525 110.895 81.7497C110.751 92.1603 110.823 102.595 110.895 113.029C110.895 114.373 110.463 115.308 109.599 116.22C106.361 119.65 102.427 122.121 98.2531 124.208C94.8229 125.911 91.6086 127.926 89.3537 131.14C88.5382 132.316 87.9145 133.611 87.1229 135.026C87.1229 134.259 87.1229 133.659 87.1229 133.035C87.1229 119.65 87.2428 106.265 87.0509 92.8799C86.979 88.5142 88.7541 85.3718 91.9924 82.8531C95.1827 80.3584 98.517 78.0556 101.755 75.6089C103.674 74.1696 105.641 72.7543 107.344 71.0752C109.072 69.4201 110.487 67.4771 111.782 65.9419Z" fill="white"/>
<path id="Vector_6" d="M83.141 134.882C81.174 130.037 77.4799 127.014 73.0662 124.735C68.3166 122.313 63.687 119.77 60.2328 115.572C59.7531 114.972 59.3932 114.085 59.3932 113.317C59.4172 104.754 59.6811 96.1662 59.5612 87.6027C59.4412 80.2385 58.9375 72.8983 58.6017 65.774C62.1758 71.8908 68.5325 75.369 74.1696 79.6868C76.8562 81.7257 79.3989 84.0285 81.6058 86.5712C82.6372 87.7466 83.093 89.7855 83.093 91.4167C83.2129 105.449 83.1649 119.482 83.1649 133.539C83.141 133.971 83.141 134.426 83.141 134.882Z" fill="white"/>
</g>
</svg>
