<svg width="106" height="107" viewBox="0 0 106 107" fill="none" xmlns="http://www.w3.org/2000/svg">
<path d="M46.217 80.835C46.2319 80.7596 46.2619 80.669 46.2768 80.5935C43.8388 79.6725 41.3709 78.7666 38.9479 77.8003C37.4821 77.2115 36.0313 76.5321 34.6253 75.8074C34.0719 75.5205 33.5634 75.0676 33.6382 74.2372C33.8625 71.7007 34.057 69.1491 34.2215 66.5976C34.5954 60.7848 34.3412 55.0023 33.5933 49.2348C33.5036 48.5705 33.4288 47.725 33.01 47.3324C32.0079 46.3813 30.7964 45.6415 29.869 44.962C30.1083 48.0571 30.5271 51.4089 30.6169 54.7607C30.7664 60.7848 30.7814 66.8089 30.6917 72.8482C30.6468 75.8678 30.5122 75.8376 33.2343 77.1662C37.3625 79.1894 41.9094 79.5517 46.217 80.835ZM59.9475 80.5784C59.9774 80.6237 60.0223 80.669 60.0522 80.7294C61.9667 80.3217 63.8812 79.9141 65.7807 79.4913C68.8618 78.7968 71.8682 77.9211 74.6053 76.2452C75.2484 75.8527 75.5326 75.3997 75.5177 74.5844C75.398 70.8401 75.2634 67.0807 75.3232 63.3213C75.398 58.7919 75.6373 54.2473 75.8617 49.7179C75.9514 48.0722 76.2207 46.4266 76.3852 44.8564C75.5027 45.5358 74.6502 46.3058 73.678 46.9097C72.975 47.3475 72.7058 47.876 72.6459 48.646C72.3917 51.8166 72.0477 54.9721 71.8682 58.1427C71.569 63.2911 71.8831 68.4093 72.4365 73.5276C72.5861 74.9166 72.4964 75.3695 71.2549 75.9886C69.6097 76.8039 67.9046 77.4833 66.1995 78.1627C64.1354 78.9931 62.0414 79.7782 59.9475 80.5784Z" fill="white"/>
<path d="M46.217 80.835C41.9094 79.5517 37.3475 79.1894 33.2343 77.1662C30.5271 75.8376 30.6617 75.8678 30.6917 72.8482C30.7664 66.824 30.7515 60.7848 30.6169 54.7607C30.5421 51.4089 30.1233 48.0722 29.869 44.962C30.7964 45.6414 32.0079 46.3813 33.01 47.3324C33.4288 47.725 33.5036 48.5705 33.5933 49.2348C34.3262 55.0023 34.5954 60.7848 34.2215 66.5976C34.057 69.1491 33.8625 71.6856 33.6382 74.2372C33.5634 75.0676 34.0719 75.5054 34.6253 75.8074C36.0313 76.5321 37.4821 77.2115 38.9479 77.8003C41.3709 78.7817 43.8388 79.6725 46.2768 80.5935C46.2619 80.669 46.2469 80.7596 46.217 80.835Z" fill="white"/>
<path d="M59.9474 80.5784C62.0265 79.7782 64.1204 78.9931 66.1995 78.1627C67.9046 77.4833 69.6096 76.8039 71.2549 75.9886C72.4963 75.3695 72.5861 74.9166 72.4365 73.5276C71.8981 68.4093 71.569 63.276 71.8682 58.1427C72.0476 54.9721 72.4066 51.8166 72.6459 48.646C72.7057 47.876 72.975 47.3475 73.6779 46.9097C74.6501 46.3209 75.5027 45.5358 76.3852 44.8564C76.2057 46.4115 75.9364 48.0571 75.8617 49.7179C75.6373 54.2474 75.398 58.7768 75.3232 63.3213C75.2634 67.0656 75.398 70.825 75.5177 74.5845C75.5476 75.3997 75.2484 75.8527 74.6053 76.2452C71.8831 77.9211 68.8618 78.7968 65.7807 79.4913C63.8811 79.9141 61.9666 80.3217 60.0521 80.7294C60.0222 80.669 59.9923 80.6237 59.9474 80.5784Z" fill="white"/>
<path d="M82.5325 40.5836C77.6416 30.1961 66.4089 22.013 53.0823 22.013C39.5761 22.013 28.3883 30.4226 23.6619 40.5534C24.3948 40.9158 25.1277 41.3385 25.8905 41.6556C26.6982 41.9877 26.9225 42.5917 26.8777 43.3768C26.7431 46.5021 26.6533 49.6123 26.4439 52.7376C26.1896 56.7386 25.8456 60.7244 25.5315 64.7103C25.382 66.5976 25.2474 68.4849 24.9781 70.3419C24.7089 72.2141 24.4247 72.4104 22.5252 72.3198C19.3693 72.1688 16.5125 71.2327 14.2989 68.817C12.9228 67.3072 12.2946 65.4501 11.9506 63.4572C11.1729 59.0486 10.4998 54.6097 10.769 50.1256C10.8737 48.3893 11.2028 46.6229 11.7412 44.9621C12.6237 42.184 14.6877 40.7044 17.6343 40.3119C17.2155 44.2223 16.5723 48.1176 17.3052 52.0431C17.3052 32.8685 34.7151 19.6577 48.9242 18.314C59.1099 17.3477 68.2337 19.9446 76.1609 26.4971C84.1479 33.0799 88.1563 41.7462 88.7995 52.1035C89.5473 48.1327 89.0238 44.2676 88.5452 40.3722C92.0152 40.7195 93.7054 42.6521 94.6327 45.4301C95.6946 48.646 95.5899 51.9827 95.3357 55.274C95.0964 58.2182 94.6327 61.1472 94.0942 64.046C93.2566 68.5151 90.1755 71.429 85.6884 72.1235C84.7611 72.2594 83.8188 72.2745 82.8915 72.3651C82.0988 72.4405 81.5902 72.0782 81.4706 71.3233C81.2013 69.7229 80.9172 68.1074 80.7676 66.4768C80.4236 62.4305 80.1245 58.3692 79.8552 54.3078C79.6309 50.9409 79.4813 47.574 79.242 44.2072C79.1373 42.6672 79.6757 41.6858 81.1415 41.2177C81.6052 41.0668 82.0389 40.8101 82.5325 40.5836Z" fill="white"/>
<path d="M69.6995 41.5046C69.52 44.6601 69.1909 48.0571 69.1461 51.4542C69.0563 58.0068 69.1012 64.5744 69.1461 71.1421C69.1461 71.9876 68.8769 72.5764 68.3384 73.1501C66.3192 75.3092 63.8663 76.8643 61.2638 78.1778C59.1249 79.2497 57.1207 80.518 55.7147 82.5411C55.2062 83.2809 54.8173 84.0962 54.3237 84.987C54.3237 84.5039 54.3237 84.1264 54.3237 83.7339C54.3237 75.3091 54.3985 66.8844 54.2788 58.4597C54.234 55.7119 55.3408 53.734 57.36 52.1487C59.3493 50.5785 61.4283 49.1291 63.4475 47.5891C64.644 46.6832 65.8705 45.7924 66.9324 44.7356C68.0093 43.6938 68.8918 42.4709 69.6995 41.5046Z" fill="white"/>
<path d="M51.8409 84.8964C50.6144 81.8466 48.311 79.9443 45.559 78.5099C42.5975 76.985 39.7108 75.3846 37.557 72.7425C37.2579 72.365 37.0335 71.8064 37.0335 71.3233C37.0485 65.9333 37.213 60.5281 37.1382 55.1381C37.0634 50.503 36.7493 45.883 36.5399 41.3989C38.7685 45.2489 42.7321 47.4381 46.247 50.1558C47.9222 51.4391 49.5076 52.8885 50.8836 54.4889C51.5268 55.2287 51.811 56.5121 51.811 57.5387C51.8858 66.3711 51.8559 75.2035 51.8559 84.0509C51.8409 84.3227 51.8409 84.6096 51.8409 84.8964Z" fill="white"/>
</svg>
