<?xml version="1.0" encoding="utf-8"?>
<!-- Generator: Adobe Illustrator 23.0.1, SVG Export Plug-In . SVG Version: 6.00 Build 0)  -->
<svg version="1.1" id="Layer_1" xmlns="http://www.w3.org/2000/svg" xmlns:xlink="http://www.w3.org/1999/xlink" x="0px" y="0px"
	 viewBox="0 0 708.7 566.9" style="enable-background:new 0 0 708.7 566.9;" xml:space="preserve">
<style type="text/css">
	.st0{fill-rule:evenodd;clip-rule:evenodd;fill:#7879F1;}
</style>
<path class="st0" d="M508.2,58.4H201.7c-39.5,0-71.8,32.3-71.8,71.8v306.4c0,39.5,32.3,71.8,71.8,71.8h306.4
	c39.5,0,71.8-32.3,71.8-71.8V130.2C579.9,90.7,547.6,58.4,508.2,58.4z M430.6,186.2h-26.5c-14.6,0-30,9.1-30,25.1v43.2h54.4
	l-9.1,57.2h-45.3v141.5h-61.3V311.7h-51.6v-57.2h51.6V212c0-42.5,25.1-78.1,70.4-75.3l47.4,2.1V186.2z"/>
</svg>
