<?xml version="1.0" encoding="utf-8"?>
<!-- Generator: Adobe Illustrator 23.0.1, SVG Export Plug-In . SVG Version: 6.00 Build 0)  -->
<svg version="1.1" id="Layer_1" xmlns="http://www.w3.org/2000/svg" xmlns:xlink="http://www.w3.org/1999/xlink" x="0px" y="0px"
	 viewBox="0 0 181.4 181.4" style="enable-background:new 0 0 181.4 181.4;" xml:space="preserve">
<style type="text/css">
	.st0{fill:#7879F1;}
</style>
<g>
	<g>
		<path class="st0" d="M78.5,147.1c0-0.1,0.1-0.3,0.1-0.4c-4.6-1.7-9.2-3.4-13.7-5.2c-2.7-1.1-5.5-2.4-8.1-3.7c-1-0.5-2-1.4-1.8-2.9
			c0.4-4.7,0.8-9.4,1.1-14.2c0.7-10.8,0.2-21.5-1.2-32.2c-0.2-1.2-0.3-2.8-1.1-3.5c-1.9-1.8-4.1-3.1-5.9-4.4
			c0.4,5.7,1.2,12,1.4,18.2c0.3,11.2,0.3,22.3,0.1,33.5c-0.1,5.6-0.3,5.5,4.8,8C61.9,144.1,70.5,144.7,78.5,147.1z M104.2,146.6
			c0.1,0.1,0.1,0.2,0.2,0.3c3.6-0.8,7.2-1.5,10.7-2.3c5.8-1.3,11.4-2.9,16.5-6c1.2-0.7,1.7-1.6,1.7-3.1c-0.2-6.9-0.5-13.9-0.4-20.9
			c0.1-8.4,0.6-16.8,1-25.2c0.2-3.1,0.7-6.1,1-9c-1.7,1.3-3.2,2.7-5.1,3.8c-1.3,0.8-1.8,1.8-1.9,3.2c-0.5,5.9-1.1,11.7-1.5,17.6
			c-0.6,9.5,0,19,1.1,28.5c0.3,2.6,0.1,3.4-2.2,4.6c-3.1,1.5-6.3,2.8-9.5,4C112.1,143.7,108.1,145.2,104.2,146.6z"/>
		<path class="st0" d="M78.5,147.1c-8.1-2.4-16.6-3.1-24.3-6.8c-5.1-2.5-4.8-2.4-4.8-8c0.1-11.2,0.1-22.4-0.1-33.5
			c-0.1-6.2-0.9-12.4-1.4-18.2c1.7,1.3,4,2.6,5.9,4.4c0.8,0.7,0.9,2.3,1.1,3.5c1.4,10.7,1.9,21.4,1.2,32.2
			c-0.3,4.7-0.7,9.4-1.1,14.2c-0.1,1.5,0.8,2.4,1.8,2.9c2.6,1.3,5.3,2.6,8.1,3.7c4.5,1.8,9.2,3.5,13.7,5.2
			C78.6,146.8,78.6,147,78.5,147.1z"/>
		<path class="st0" d="M104.2,146.6c3.9-1.5,7.8-2.9,11.7-4.5c3.2-1.3,6.4-2.5,9.5-4c2.3-1.1,2.5-2,2.2-4.6c-1-9.5-1.6-19-1.1-28.5
			c0.3-5.9,1-11.7,1.5-17.6c0.1-1.4,0.6-2.4,1.9-3.2c1.8-1.1,3.4-2.5,5.1-3.8c-0.3,2.9-0.8,5.9-1,9c-0.4,8.4-0.9,16.8-1,25.2
			c-0.1,6.9,0.1,13.9,0.4,20.9c0.1,1.5-0.5,2.4-1.7,3.1c-5.1,3.1-10.8,4.7-16.5,6c-3.6,0.8-7.1,1.5-10.7,2.3
			C104.4,146.8,104.3,146.7,104.2,146.6z"/>
	</g>
</g>
<path class="st0" d="M146.5,72.5C137.4,53.2,116.3,38,91.4,38c-25.3,0-46.2,15.6-55.1,34.4c1.4,0.7,2.7,1.5,4.2,2
	c1.5,0.6,1.9,1.7,1.8,3.2c-0.3,5.8-0.4,11.6-0.8,17.4c-0.5,7.4-1.1,14.8-1.7,22.2c-0.3,3.5-0.5,7-1,10.4c-0.5,3.5-1,3.8-4.6,3.7
	c-5.9-0.3-11.3-2-15.4-6.5c-2.6-2.8-3.8-6.2-4.4-9.9c-1.5-8.2-2.7-16.4-2.2-24.7c0.2-3.2,0.8-6.5,1.8-9.6c1.7-5.2,5.5-7.9,11-8.6
	c-0.8,7.3-2,14.5-0.6,21.8c0-35.6,32.6-60.1,59.2-62.6c19.1-1.8,36.1,3,51,15.2c15,12.2,22.5,28.3,23.7,47.5
	c1.4-7.4,0.4-14.5-0.5-21.8c6.5,0.6,9.7,4.2,11.4,9.4c2,6,1.8,12.2,1.3,18.3c-0.4,5.5-1.3,10.9-2.3,16.3c-1.6,8.3-7.3,13.7-15.7,15
	c-1.7,0.3-3.5,0.3-5.2,0.4c-1.5,0.1-2.4-0.5-2.7-1.9c-0.5-3-1-6-1.3-9c-0.6-7.5-1.2-15-1.7-22.6c-0.4-6.2-0.7-12.5-1.1-18.7
	c-0.2-2.9,0.8-4.7,3.6-5.5C144.8,73.4,145.6,72.9,146.5,72.5z"/>
<path class="st0" d="M122.5,74.2c-0.3,5.9-1,12.2-1,18.5c-0.2,12.2-0.1,24.3,0,36.5c0,1.6-0.5,2.7-1.5,3.7c-3.8,4-8.4,6.9-13.2,9.3
	c-4,2-7.8,4.3-10.4,8.1c-1,1.4-1.7,2.9-2.6,4.5c0-0.9,0-1.6,0-2.3c0-15.6,0.1-31.2-0.1-46.9c-0.1-5.1,2-8.8,5.8-11.7
	c3.7-2.9,7.6-5.6,11.4-8.5c2.2-1.7,4.5-3.3,6.5-5.3C119.3,78.2,121,76,122.5,74.2z"/>
<path class="st0" d="M89.1,154.6c-2.3-5.7-6.6-9.2-11.8-11.8c-5.5-2.8-10.9-5.8-15-10.7c-0.6-0.7-1-1.7-1-2.6c0-10,0.3-20,0.2-30
	c-0.1-8.6-0.7-17.2-1.1-25.5c4.2,7.1,11.6,11.2,18.2,16.2c3.1,2.4,6.1,5.1,8.7,8c1.2,1.4,1.7,3.8,1.7,5.7
	c0.1,16.4,0.1,32.8,0.1,49.2C89.1,153.6,89.1,154.1,89.1,154.6z"/>
</svg>
