<?xml version="1.0" encoding="utf-8"?>
<!-- Generator: Adobe Illustrator 23.0.1, SVG Export Plug-In . SVG Version: 6.00 Build 0)  -->
<svg version="1.1" id="Layer_1" xmlns="http://www.w3.org/2000/svg" xmlns:xlink="http://www.w3.org/1999/xlink" x="0px" y="0px"
	 viewBox="0 0 164.4 164.4" style="enable-background:new 0 0 164.4 164.4;" xml:space="preserve">
<style type="text/css">
	.st0{fill:#7879F1;}
</style>
<path class="st0" d="M68.5,148.7c-8.4-2.8-17.3-3.6-25.3-7.8c-5.3-2.9-5-2.8-5-9.2c0.1-12.9,0.1-31.8-0.1-44.5
	C38,80,37.1,72.9,36.6,66.2c1.8,1.5,4.2,3,6.1,5.1c0.8,0.8,0.9,2.6,1.1,4c1.5,12.3,2,30.6,1.2,43c-0.3,5.4-0.7,10.8-1.1,16.3
	c-0.1,1.7,0.8,2.8,1.9,3.3c2.7,1.5,5.5,3,8.4,4.3c4.7,2.1,9.6,4,14.3,6C68.6,148.4,68.6,148.6,68.5,148.7z"/>
<path class="st0" d="M95.2,148.1c4.1-1.7,8.1-3.3,12.2-5.2c3.3-1.5,6.7-2.9,9.9-4.6c2.4-1.3,2.6-2.3,2.3-5.3
	c-1-10.9-1.7-21.8-1.1-32.8c0.3-6.8,1-19.5,1.6-26.2c0.1-1.6,0.6-2.8,2-3.7c1.9-1.3,3.5-2.9,5.3-4.4c-0.3,3.3-0.8,6.8-1,10.3
	c-0.4,9.7-0.9,25.3-1,35c-0.1,7.9,0.1,16,0.4,24c0.1,1.7-0.5,2.8-1.8,3.6c-5.3,3.6-11.2,5.4-17.2,6.9c-3.7,0.9-7.4,1.7-11.1,2.6
	C95.4,148.4,95.3,148.2,95.2,148.1z"/>
<path class="st0" d="M137,60.1c-1.9-6.7-6.8-17.1-13.4-25c-9.8-11.7-23.9-19.9-40.7-19.9c-17.6,0-34,8.6-43.8,20.5
	C32.5,43.7,27.7,53.1,26,60.4c1.4,0.7,3.5,1.2,5,1.7c1.5,0.6,1.9,1.8,1.8,3.3c-0.3,6-0.4,12-0.8,18c-0.5,7.6-1.1,15.3-1.7,22.9
	c-0.3,3.6-0.5,7.2-1,10.7c-0.5,3.6-1,3.9-4.6,3.8c-5.9-0.3-11.3-2.1-15.4-6.7c-2.6-2.9-3.8-6.4-4.4-10.2C3.4,95.4,2.2,87,2.7,78.4
	c0.2-3.3,0.8-6.7,1.8-9.9c1.7-5.4,5.5-8.1,11-8.9c-0.8,7.5-2,15-0.6,22.5c0-36.7,27.3-74.3,68-74.3c35.8,0,65.9,37.5,65.9,74.4
	c1.4-7.6,0.4-15-0.5-22.5c6.5,0.6,9.7,4.3,11.4,9.7c2,6.2,1.8,12.6,1.3,18.9c-0.4,5.7-1.3,11.2-2.3,16.8
	c-1.6,8.6-7.3,14.1-15.7,15.5c-1.7,0.3-3.5,0.3-5.2,0.4c-1.5,0.1-2.4-0.5-2.7-2c-0.5-3.1-1-6.2-1.3-9.3c-0.6-7.7-1.2-15.5-1.7-23.3
	c-0.4-6.4-0.7-12.9-1.1-19.3c-0.2-3,0.8-4.8,3.6-5.7C135.3,61.1,136.1,60.6,137,60.1z"/>
<path class="st0" d="M116.3,63.9c0,0-2,15-2,22.3c-0.2,14-0.1,27.9,0,42c0,1.8-0.5,3.1-1.6,4.3c-4,4.6-9.7,7.9-14.7,10.7
	c-4.2,2.3-8.1,4.9-10.8,9.3c-1,1.6-1.8,3.3-2.7,5.2c0-1,0-1.8,0-2.6c0-17.9,0.1-36.9-0.1-54.9c-0.1-5.9,2.1-10.1,6-13.5
	C108,74.9,114.7,66,116.3,63.9z"/>
<path class="st0" d="M79.5,157.3c-2.4-6.6-6.9-10.6-12.3-13.6c-5.7-3.2-12.4-6.7-16.6-12.3c-0.6-0.8-1-2-1-3c0-11.5,0.3-23,0.2-34.5
	c-0.1-9.9-1.7-20.8-2.1-30.3c4.4,8.2,14.1,12.9,21,18.6c3.2,2.8,6.4,5.9,9.1,9.2c1.2,1.6,1.8,4.4,1.8,6.6
	c0.1,18.9,0.1,38.7,0.1,57.6C79.5,156.2,79.5,156.8,79.5,157.3z"/>
</svg>
