<?xml version="1.0" encoding="utf-8"?>
<!-- Generator: Adobe Illustrator 23.0.1, SVG Export Plug-In . SVG Version: 6.00 Build 0)  -->
<svg version="1.1" id="Layer_1" xmlns="http://www.w3.org/2000/svg" xmlns:xlink="http://www.w3.org/1999/xlink" x="0px" y="0px"
	 viewBox="0 0 708.7 566.9" style="enable-background:new 0 0 708.7 566.9;" xml:space="preserve">
<style type="text/css">
	.st0{fill-rule:evenodd;clip-rule:evenodd;fill:#7879F1;}
</style>
<g>
	<path class="st0" d="M420.3,165H289.4c-29.5,0-53.5,24-53.5,53.5v130.2c0,29.5,24,53.5,53.5,53.5h130.9c29.5,0,53.5-24,53.5-53.5
		V218.4C473.7,188.9,449.7,165,420.3,165z M355.2,361.6h-0.7c-42.5,0-77.4-35-77.4-78.1c0-42.5,35-78.1,77.4-78.1h0.7
		c42.5,0,78.1,35.6,78.1,78.1C433.3,326.7,397.7,361.6,355.2,361.6z M431.9,223.2c-9.6,0-16.4-7.5-16.4-16.4s6.9-16.4,16.4-16.4
		c8.9,0,16.4,7.5,16.4,16.4C448.4,215.7,440.8,223.2,431.9,223.2z"/>
	<path class="st0" d="M507.9,58.4H201.5c-39.5,0-71.8,32.3-71.8,71.8v306.4c0,39.5,32.3,71.8,71.8,71.8h306.4
		c39.5,0,71.8-32.3,71.8-71.8V130.2C579.7,90.7,547.4,58.4,507.9,58.4z M498.4,349.3c0,42.5-35,77.4-77.4,77.4H288.7
		c-42.5,0-77.4-35-77.4-77.4V217.7c0-42.5,35-77.4,77.4-77.4H421c42.5,0,77.4,35,77.4,77.4V349.3z"/>
	<path class="st0" d="M355.2,232.1h-0.7c-28.1,0-51.4,23.3-51.4,51.4c0,28.8,23.3,52.1,51.4,52.1h0.7c28.1,0,51.4-23.3,51.4-52.1
		C406.6,255.4,383.3,232.1,355.2,232.1z"/>
</g>
</svg>
