<?xml version="1.0" encoding="utf-8"?>
<!-- Generator: Adobe Illustrator 23.0.1, SVG Export Plug-In . SVG Version: 6.00 Build 0)  -->
<svg version="1.1" id="Layer_1" xmlns="http://www.w3.org/2000/svg" xmlns:xlink="http://www.w3.org/1999/xlink" x="0px" y="0px"
	 viewBox="0 0 708.7 566.9" style="enable-background:new 0 0 708.7 566.9;" xml:space="preserve">
<style type="text/css">
	.st0{fill-rule:evenodd;clip-rule:evenodd;fill:#7879F1;}
</style>
<path class="st0" d="M507.9,58.6H201.5c-39.5,0-71.8,32.3-71.8,71.8v306.4c0,39.5,32.3,71.8,71.8,71.8h306.4
	c39.5,0,71.8-32.3,71.8-71.8V130.4C579.7,90.9,547.4,58.6,507.9,58.6z M472.5,234c-7,47.9-15,95.8-22.9,143.7
	c-3,22.9-15,34.9-39.9,20.9l-77.8-54.9c-11-9-8-16,1-24.9l71.8-67.8c19-19,10-25.9-12-11l-98.8,66.8c-14,10-28.9,10-44.9,5l-33.9-12
	c-21.9-8-5-17,6-21.9c61.9-25.9,136.7-62.8,201.5-87.8C482.4,168.2,481.4,174.2,472.5,234z"/>
</svg>
