<?xml version="1.0" encoding="utf-8"?>
<!-- Generator: Adobe Illustrator 23.0.1, SVG Export Plug-In . SVG Version: 6.00 Build 0)  -->
<svg version="1.1" id="Layer_1" xmlns="http://www.w3.org/2000/svg" xmlns:xlink="http://www.w3.org/1999/xlink" x="0px" y="0px"
	 viewBox="0 0 708.7 566.9" style="enable-background:new 0 0 708.7 566.9;" xml:space="preserve">
<style type="text/css">
	.st0{fill-rule:evenodd;clip-rule:evenodd;fill:#7879F1;}
</style>
<path class="st0" d="M508.1,58.4H201.7c-39.5,0-71.8,32.3-71.8,71.8v306.4c0,39.5,32.3,71.8,71.8,71.8h306.4
	c39.5,0,71.8-32.3,71.8-71.8V130.2C579.9,90.7,547.6,58.4,508.1,58.4z M470.9,228c9.6,133.7-134.4,214.9-251.1,148.5
	c0,0,57.6,3,82-25.1c0,0-35.5,3-53.2-39.9c0,0,13.3,5.2,26.6-1.5c0,0-41.4-6.6-45.1-56.1c0,0,13.3,10.3,28.1,6.6
	c0,0-45.8-27.3-19.9-76.8c0,0,48.7,62,118.9,59.8c-11.1-58.3,59.1-93.1,100.4-51c0,0,18.5-5.2,34.7-15.5c0,0-5.9,19.9-25.8,32.5
	c0,0,22.2-3,31.8-8.9C498.3,200.7,488.7,220.7,470.9,228z"/>
</svg>
